<svg xmlns="http://www.w3.org/2000/svg"><defs><clipPath id="a"><path fill="#fff" d="M0 0h24v24H0z"></path></clipPath></defs><symbol id="arrow-left"><path stroke="currentColor" stroke-linecap="round" stroke-linejoin="round" d="M13.5 7H1m0 0 6-6M1 7l6 6"></path></symbol><symbol id="arrow-right"><path stroke="currentColor" stroke-linecap="round" stroke-linejoin="round" d="M1 7h12.5m0 0-6-6m6 6-6 6"></path></symbol><symbol id="arrow-up"><path stroke="currentColor" stroke-linecap="round" stroke-linejoin="round" d="M12 5v14M18 11l-6-6M6 11l6-6"></path></symbol><symbol id="facebook"><path stroke="#181C29" stroke-linecap="round" stroke-linejoin="round" stroke-width="1.5" d="M12 1H9a5 5 0 0 0-5 5v3H1v4h3v8h4v-8h3l1-4H8V6a1 1 0 0 1 1-1h3z"></path></symbol><symbol id="instagram"><path stroke="#181C29" stroke-linecap="round" stroke-linejoin="round" stroke-width="1.5" d="M12 16a4 4 0 1 0 0-8 4 4 0 0 0 0 8"></path><path stroke="#181C29" stroke-width="1.5" d="M3 16V8a5 5 0 0 1 5-5h8a5 5 0 0 1 5 5v8a5 5 0 0 1-5 5H8a5 5 0 0 1-5-5Z"></path><path stroke="#181C29" stroke-linecap="round" stroke-linejoin="round" stroke-width="1.5" d="m17.5 6.51.01-.011"></path></symbol><symbol id="snowflake"><g clip-path="url(#a)"><path fill="#FF4646" d="m18.294 14.822-.821-.474 2.201-.59-.364-1.357-3.559.953-1.678-.969a2.1 2.1 0 0 0 0-.77l1.678-.97 3.56.954.363-1.357-2.201-.59.821-.475 3.525-.211.52-2.935-2.802-1.018-1.946 2.947-.821.474.59-2.2-1.358-.365-.954 3.56-1.68.97a2.1 2.1 0 0 0-.665-.387V8.074l2.605-2.605-.994-.994-1.611 1.611v-.948l1.574-3.15L12 0 9.723 1.989l1.574 3.149v.948L9.686 4.475l-.994.994 2.605 2.605v1.938c-.246.088-.471.22-.666.386l-1.68-.97-.953-3.559-1.358.364.59 2.202-.821-.475-1.946-2.947L1.66 6.031l.52 2.935 3.525.212.821.474-2.201.59.364 1.357 3.559-.953 1.678.969a2.1 2.1 0 0 0 0 .77l-1.678.97-3.56-.954-.363 1.357 2.201.59-.821.474-3.525.212-.52 2.935 2.802 1.018 1.946-2.947.821-.475-.59 2.202 1.358.364.954-3.56 1.68-.97c.194.167.42.3.665.386v1.939L8.692 18.53l.994.994 1.611-1.611v.948l-1.574 3.15L12 24l2.277-1.989-1.574-3.149v-.948l1.611 1.611.994-.994-2.605-2.605v-1.938c.246-.088.471-.22.666-.386l1.68.97.953 3.559 1.358-.364-.59-2.202.822.475 1.945 2.947 2.802-1.018-.52-2.935z"></path></g></symbol><symbol id="telegram"><path stroke="#181C29" stroke-linecap="round" stroke-linejoin="round" stroke-width="1.5" d="M21 5 2 12.5l7 1M21 5l-2.5 15L9 13.5M21 5 9 13.5m0 0V19l3.249-3.277"></path></symbol><symbol id="twitter"><path stroke="#181C29" stroke-width="1.5" d="M16.82 20.768 3.753 3.968A.6.6 0 0 1 4.227 3h2.48a.6.6 0 0 1 .473.232l13.067 16.8a.6.6 0 0 1-.474.968h-2.48a.6.6 0 0 1-.473-.232Z"></path><path stroke="#181C29" stroke-linecap="round" stroke-width="1.5" d="M20 3 4 21"></path></symbol></svg>