<svg width="22" height="24" viewBox="0 0 22 24" fill="currentColor" xmlns="http://www.w3.org/2000/svg">
<path d="M17.2942 14.8224L16.4727 14.3481L18.674 13.7583L18.3102 12.4006L14.7512 13.3542L13.0725 12.385C13.0957 12.26 13.1084 12.1315 13.1084 12C13.1084 11.8684 13.0957 11.7398 13.0725 11.6149L14.7512 10.6457L18.3102 11.5994L18.674 10.2416L16.4727 9.65177L17.2942 9.17747L20.8194 8.96588L21.3385 6.03095L18.5373 5.01305L16.5914 7.96016L15.7699 8.43446L16.3598 6.23317L15.002 5.86939L14.0484 9.42842L12.3688 10.3982C12.1741 10.2315 11.949 10.0997 11.7028 10.0124V8.0742L14.3082 5.46879L13.3143 4.47488L11.7028 6.08633V5.13772L13.2773 1.98876L11 0L8.72272 1.98886L10.2972 5.13782V6.08642L8.68571 4.47497L7.69179 5.46889L10.2972 8.0743V10.0125C10.051 10.0998 9.8259 10.2316 9.63122 10.3983L7.95155 9.42852L6.99793 5.86949L5.6402 6.23326L6.23004 8.43456L5.40855 7.96025L3.46271 5.01314L0.661499 6.03104L1.18059 8.96597L4.70579 9.17757L5.52728 9.65187L3.32599 10.2417L3.68981 11.5994L7.24884 10.6458L8.92747 11.615C8.90433 11.74 8.89158 11.8685 8.89158 12C8.89158 12.1316 8.90428 12.2602 8.92747 12.3851L7.24884 13.3543L3.68981 12.4006L3.32599 13.7584L5.52728 14.3482L4.70579 14.8225L1.18059 15.034L0.661499 17.969L3.46276 18.9869L5.4086 16.0397L6.23014 15.5654L5.64029 17.7667L6.99803 18.1306L7.95165 14.5715L9.63131 13.6018C9.82599 13.7684 10.0511 13.9003 10.2972 13.9875V15.9258L7.69189 18.5311L8.6858 19.525L10.2973 17.9135V18.8621L8.72282 22.0111L11.0001 24L13.2774 22.0111L11.7029 18.8621V17.9135L13.3144 19.525L14.3083 18.5311L11.703 15.9258V13.9875C11.9491 13.9003 12.1742 13.7684 12.3689 13.6018L14.0486 14.5715L15.0022 18.1306L16.3599 17.7667L15.7701 15.5654L16.5916 16.0397L18.5375 18.9869L21.3387 17.969L20.8196 15.034L17.2942 14.8224Z" fill="currentColor"/>
</svg>
